<svg aria-hidden="true" style="position: absolute; width: 0; height: 0; overflow: hidden;" version="1.1" xmlns="http://www.w3.org/2000/svg" xmlns:xlink="http://www.w3.org/1999/xlink">
<defs>
<symbol id="icon-menu-close" viewBox="0 0 32 32">
<path d="M32 3.223l-3.223-3.223-12.777 12.777-12.777-12.777-3.223 3.223 12.777 12.777-12.777 12.777 3.223 3.223 12.777-12.777 12.777 12.777 3.223-3.223-12.777-12.777 12.777-12.777z"></path>
</symbol>
<symbol id="icon-menu" viewBox="0 0 32 32">
<path d="M4.799 8.001c0-0.424 0.169-0.831 0.469-1.131s0.707-0.469 1.131-0.469h19.2c0.424 0 0.831 0.169 1.131 0.469s0.469 0.707 0.469 1.131-0.169 0.831-0.469 1.131c-0.3 0.3-0.707 0.469-1.131 0.469h-19.2c-0.424 0-0.831-0.169-1.131-0.469s-0.469-0.707-0.469-1.131z"></path>
<path d="M4.799 16.001c0-0.424 0.169-0.831 0.469-1.131s0.707-0.469 1.131-0.469h19.2c0.424 0 0.831 0.169 1.131 0.469s0.469 0.707 0.469 1.131c0 0.424-0.169 0.831-0.469 1.131s-0.707 0.469-1.131 0.469h-19.2c-0.424 0-0.831-0.169-1.131-0.469s-0.469-0.707-0.469-1.131z"></path>
<path d="M4.799 24.001c0-0.424 0.169-0.831 0.469-1.131s0.707-0.469 1.131-0.469h19.2c0.424 0 0.831 0.169 1.131 0.469s0.469 0.707 0.469 1.131c0 0.424-0.169 0.831-0.469 1.131s-0.707 0.469-1.131 0.469h-19.2c-0.424 0-0.831-0.169-1.131-0.469s-0.469-0.707-0.469-1.131z"></path>
</symbol>
<symbol id="icon-checkbox" viewBox="0 0 40 32">
<path d="M33.843 1.958c0.657-0.578 1.532-0.897 2.44-0.891s1.777 0.338 2.425 0.925c0.648 0.587 1.023 1.383 1.047 2.221s-0.305 1.651-0.919 2.269l-18.62 21.495c-0.32 0.318-0.707 0.574-1.136 0.751s-0.893 0.273-1.364 0.281c-0.47 0.008-0.938-0.072-1.374-0.234s-0.833-0.405-1.166-0.712l-12.348-11.398c-0.344-0.296-0.62-0.652-0.811-1.049s-0.294-0.824-0.302-1.258c-0.008-0.434 0.078-0.865 0.254-1.267s0.438-0.768 0.77-1.075 0.728-0.549 1.164-0.711c0.436-0.162 0.903-0.242 1.373-0.235s0.933 0.103 1.363 0.279c0.429 0.177 0.816 0.431 1.136 0.749l9.772 9.016 16.207-19.062c0.029-0.033 0.060-0.065 0.093-0.095h-0.005z"></path>
</symbol>
<symbol id="icon-antenna" viewBox="0 0 32 32">
<path fill="#2e2f42" style="fill: var(--color1, #2e2f42)" d="M30.773 22.098l-8.443-8.505 0.937-4.615c0.242 0.095 0.499 0.144 0.759 0.146h0.006c1.192 0.014 2.17-0.941 2.184-2.133s-0.941-2.17-2.134-2.184c-1.192-0.014-2.17 0.941-2.184 2.133-0.003 0.255 0.039 0.508 0.125 0.749l-4.96 0.606-8.091-8.133c-0.099-0.102-0.235-0.159-0.377-0.16-0.14 0.001-0.274 0.057-0.373 0.155l-1.513 1.504c-0.208 0.208-0.208 0.546 0 0.754l0.814 0.825c-3.153 5.798-2.129 12.978 2.519 17.663 0.043 0.041 0.092 0.074 0.146 0.098-0.034 0.18-0.051 0.363-0.053 0.547v6.186h-6.4c-1.472 0.002-2.665 1.195-2.667 2.666v1.067c0 0.294 0.239 0.534 0.534 0.534h24.534c0.294 0 0.534-0.239 0.534-0.534v-1.067c-0.002-1.472-1.195-2.665-2.666-2.666h-6.4v-2.742c1.003 0.21 2.024 0.317 3.049 0.32 2.458-0.003 4.877-0.616 7.040-1.784l0.818 0.823c0.099 0.102 0.235 0.159 0.377 0.16 0.14-0.001 0.274-0.056 0.373-0.155l1.512-1.504c0.208-0.209 0.208-0.546 0-0.754zM23.28 6.233c0.418-0.415 1.093-0.413 1.509 0.004s0.413 1.093-0.004 1.508c-0.2 0.199-0.471 0.311-0.753 0.311h-0.003c-0.589-0.003-1.064-0.483-1.061-1.072 0.002-0.282 0.114-0.552 0.314-0.751h-0.002zM22.024 9.738l-0.599 2.945-1.175-1.183 1.774-1.763zM21.419 8.836l-1.92 1.909-1.486-1.494 3.405-0.415zM24.004 28.8c0.884 0 1.6 0.716 1.6 1.6v0.534h-23.466v-0.534c0-0.884 0.716-1.6 1.6-1.6h20.267zM16.538 26.666v1.067h-5.334v-1.067h5.334zM11.204 25.6v-4.053c0-1.294 1.197-2.346 2.666-2.346s2.666 1.053 2.666 2.346v4.053h-5.334zM17.604 23.904v-2.357c0-1.882-1.675-3.413-3.733-3.413-1.331-0.020-2.575 0.657-3.281 1.786-4.058-4.274-4.971-10.645-2.278-15.887l18.602 18.709c-2.872 1.461-6.165 1.872-9.309 1.163zM28.893 23.221l-21.057-21.181 0.755-0.752 7.935 7.98c0.004 0 0.006 0.007 0.009 0.009l13.114 13.191-0.757 0.752z"></path>
<path fill="#4d5ae5" style="fill: var(--color2, #4d5ae5)" d="M13.876 20.267h-0.005c-0.883-0.002-1.601 0.714-1.602 1.598s0.714 1.601 1.598 1.602h0.005c0.883 0.002 1.601-0.714 1.603-1.598s-0.714-1.601-1.598-1.602zM14.249 22.245c-0.101 0.1-0.236 0.155-0.378 0.155-0.294-0.002-0.532-0.241-0.53-0.536 0.001-0.141 0.057-0.276 0.157-0.375s0.233-0.154 0.373-0.155c0.294 0.002 0.532 0.241 0.53 0.536-0.001 0.141-0.057 0.276-0.157 0.375h0.005z"></path>
</symbol>
<symbol id="icon-astronaut" viewBox="0 0 32 32">
<path fill="#4d5ae5" style="fill: var(--color2, #4d5ae5)" d="M31.974 4.524c-0.063-0.192-0.23-0.333-0.43-0.362l-1.91-0.278-0.855-1.731c-0.179-0.365-0.777-0.365-0.956 0l-0.855 1.731-1.91 0.278c-0.201 0.029-0.367 0.17-0.431 0.362-0.063 0.193-0.011 0.405 0.135 0.546l1.383 1.348-0.326 1.903c-0.034 0.2 0.048 0.402 0.212 0.521 0.166 0.12 0.383 0.136 0.562 0.040l1.709-0.899 1.709 0.899c0.078 0.041 0.164 0.062 0.248 0.062 0.11 0 0.221-0.034 0.314-0.102 0.164-0.12 0.247-0.322 0.212-0.521l-0.326-1.903 1.383-1.348c0.145-0.142 0.197-0.354 0.135-0.546zM29.511 5.851c-0.125 0.122-0.183 0.299-0.153 0.472l0.191 1.114-1-0.526c-0.078-0.041-0.163-0.061-0.248-0.061s-0.17 0.020-0.248 0.061l-1 0.526 0.191-1.114c0.030-0.173-0.028-0.349-0.153-0.472l-0.81-0.79 1.119-0.162c0.174-0.025 0.324-0.135 0.401-0.292l0.5-1.014 0.5 1.014c0.078 0.157 0.228 0.266 0.401 0.292l1.119 0.162-0.809 0.79z"></path>
<path fill="#4d5ae5" style="fill: var(--color2, #4d5ae5)" d="M26.134 20.522h-1.067v1.067h1.067v-1.067z"></path>
<path fill="#4d5ae5" style="fill: var(--color2, #4d5ae5)" d="M26.134 22.655h-1.067v1.067h1.067v-1.067z"></path>
<path fill="#4d5ae5" style="fill: var(--color2, #4d5ae5)" d="M27.2 21.589h-1.067v1.067h1.067v-1.067z"></path>
<path fill="#4d5ae5" style="fill: var(--color2, #4d5ae5)" d="M25.067 21.589h-1.067v1.067h1.067v-1.067z"></path>
<path fill="#4d5ae5" style="fill: var(--color2, #4d5ae5)" d="M22.4 26.389h-1.067v1.067h1.067v-1.067z"></path>
<path fill="#4d5ae5" style="fill: var(--color2, #4d5ae5)" d="M22.4 28.523h-1.067v1.067h1.067v-1.067z"></path>
<path fill="#4d5ae5" style="fill: var(--color2, #4d5ae5)" d="M23.467 27.456h-1.067v1.067h1.067v-1.067z"></path>
<path fill="#4d5ae5" style="fill: var(--color2, #4d5ae5)" d="M21.334 27.456h-1.067v1.067h1.067v-1.067z"></path>
<path fill="#4d5ae5" style="fill: var(--color2, #4d5ae5)" d="M16 24.256h-1.066v1.067h1.066v-1.067z"></path>
<path fill="#4d5ae5" style="fill: var(--color2, #4d5ae5)" d="M16 26.389h-1.066v1.067h1.066v-1.067z"></path>
<path fill="#4d5ae5" style="fill: var(--color2, #4d5ae5)" d="M17.067 25.323h-1.067v1.067h1.067v-1.067z"></path>
<path fill="#4d5ae5" style="fill: var(--color2, #4d5ae5)" d="M14.934 25.323h-1.066v1.067h1.066v-1.067z"></path>
<path fill="#4d5ae5" style="fill: var(--color2, #4d5ae5)" d="M5.867 6.122h-1.066v1.066h1.066v-1.066z"></path>
<path fill="#4d5ae5" style="fill: var(--color2, #4d5ae5)" d="M5.867 8.255h-1.066v1.066h1.066v-1.066z"></path>
<path fill="#4d5ae5" style="fill: var(--color2, #4d5ae5)" d="M6.933 7.189h-1.066v1.067h1.066v-1.066z"></path>
<path fill="#4d5ae5" style="fill: var(--color2, #4d5ae5)" d="M4.8 7.189h-1.067v1.067h1.067v-1.066z"></path>
<path fill="#2e2f42" style="fill: var(--color1, #2e2f42)" d="M24.715 14.159c-0.288-0.388-0.709-0.637-1.189-0.704-0.481-0.069-0.956 0.058-1.34 0.352l-1.253 0.96-1.898 1.417-1.358-0.541c2.422-1.087 4.114-3.508 4.114-6.32 0-3.823-3.122-6.934-6.961-6.934s-6.961 3.111-6.961 6.934c0 1.386 0.415 2.674 1.12 3.758l-2.764-0.024c-0.002 0-0.003 0-0.005 0-0.008 0-0.016 0.005-0.024 0.005-0.053 0.002-0.104 0.013-0.155 0.031-0.013 0.005-0.026 0.008-0.038 0.014-0.006 0.002-0.013 0.003-0.019 0.007l-3.233 1.597c-0.001 0-0.001 0-0.001 0.001l-1.893 0.911c-0.021 0.009-0.042 0.021-0.063 0.035-0.754 0.503-1.012 1.489-0.599 2.296 0.221 0.429 0.595 0.744 1.056 0.889 0.177 0.055 0.359 0.082 0.539 0.082 0.289 0 0.577-0.071 0.84-0.211l1.388-0.738 2.264-1.169 1.357-0.008-5.441 5.415c-0.001 0-0.001 0-0.002 0.001l-1.339 1.334c-0.316 0.314-0.49 0.733-0.49 1.177s0.174 0.863 0.49 1.178c0.325 0.323 0.752 0.485 1.179 0.485s0.855-0.162 1.18-0.485l1.314-1.309 1.741-1.299 0.901 0.897-1.761 1.754c0 0-0.001 0-0.002 0.001l-1.338 1.334c-0.317 0.314-0.49 0.733-0.49 1.177s0.174 0.863 0.49 1.178c0.325 0.323 0.752 0.485 1.18 0.485s0.855-0.162 1.181-0.485l3.482-3.466c0.001 0 0.001-0.001 0.001-0.002l1.009-1-0.004-0.004c0.007-0.006 0.015-0.009 0.022-0.015l5.166-5.658 3.471 0.494c0.025 0.004 0.050 0.006 0.075 0.006 0.064 0 0.127-0.015 0.187-0.038 0.017-0.006 0.033-0.015 0.049-0.023 0.019-0.009 0.040-0.015 0.058-0.027l3.213-2.134c0.012-0.008 0.018-0.021 0.029-0.029 0.013-0.010 0.029-0.015 0.041-0.026l1.271-1.191c0.662-0.62 0.753-1.636 0.212-2.362zM2.131 17.77c-0.173 0.093-0.37 0.111-0.558 0.052-0.187-0.058-0.338-0.186-0.426-0.358-0.161-0.314-0.067-0.695 0.214-0.902l1.313-0.632 0.449 1.312-0.992 0.527zM5.628 15.943l-1.548 0.8-0.439-1.284 2.027-1.001-0.040 1.484zM20.727 9.322c0 0.918-0.219 1.784-0.599 2.559l-4.181-1.899c-0.044-0.573-0.341-1.075-0.788-1.388l1.464-4.861c2.378 0.756 4.105 2.974 4.105 5.588zM8.938 9.322c0-3.235 2.644-5.867 5.894-5.867 0.253 0 0.5 0.022 0.745 0.052l-1.432 4.754c-0.019-0.001-0.037-0.006-0.057-0.006-1.033 0-1.873 0.838-1.873 1.867s0.84 1.867 1.873 1.867c0.694 0 1.294-0.383 1.618-0.944l3.863 1.755c-1.075 1.447-2.794 2.39-4.736 2.39-3.25 0-5.895-2.632-5.895-5.867zM14.895 10.122c0 0.441-0.361 0.8-0.806 0.8s-0.806-0.359-0.806-0.8c0-0.441 0.361-0.8 0.806-0.8s0.806 0.359 0.806 0.8zM2.465 25.146c-0.236 0.234-0.619 0.233-0.855 0-0.113-0.113-0.176-0.264-0.176-0.423s0.063-0.309 0.176-0.422l0.962-0.959 0.851 0.848-0.959 0.954zM5.678 28.88c-0.237 0.234-0.619 0.235-0.855 0-0.114-0.113-0.176-0.264-0.176-0.423s0.063-0.309 0.176-0.422l0.963-0.959 0.852 0.848-0.96 0.955zM9.161 25.411c-0.001 0-0.001 0-0.002 0.001l-1.765 1.76-0.852-0.848 1.763-1.755c0 0 0 0 0 0s0.001 0 0.002-0.001c0.040-0.040 0.065-0.088 0.089-0.136 0.007-0.014 0.021-0.026 0.026-0.040 0.017-0.041 0.019-0.085 0.025-0.128 0.003-0.024 0.014-0.047 0.014-0.073 0-0.036-0.013-0.070-0.021-0.105-0.007-0.032-0.007-0.064-0.018-0.096-0.021-0.050-0.055-0.095-0.091-0.137-0.010-0.012-0.014-0.026-0.025-0.038 0 0 0 0-0.001 0s-0.001-0.002-0.001-0.002l-1.607-1.6c-0.017-0.017-0.039-0.024-0.058-0.038-0.028-0.022-0.056-0.042-0.087-0.058s-0.061-0.024-0.093-0.032c-0.034-0.009-0.067-0.017-0.103-0.020-0.032-0.002-0.063 0.001-0.096 0.005-0.036 0.004-0.069 0.009-0.104 0.020-0.034 0.011-0.064 0.027-0.095 0.045-0.020 0.011-0.042 0.015-0.061 0.029l-1.774 1.324-0.901-0.897 2.399-2.386 4.361 4.288-0.928 0.919zM15.979 18.394c-0.015-0.002-0.030 0.004-0.046 0.003-0.039-0.002-0.076 0-0.115 0.007-0.030 0.006-0.059 0.011-0.088 0.021-0.034 0.012-0.065 0.028-0.097 0.047-0.030 0.018-0.057 0.038-0.083 0.061-0.013 0.011-0.028 0.017-0.040 0.029l-4.698 5.146-4.328-4.256 2.833-2.818c0.209-0.208 0.21-0.546 0.002-0.755-0.105-0.105-0.243-0.157-0.382-0.156v-0.001l-2.219 0.014 0.028-1.607 3.104 0.027c1.265 1.294 3.030 2.101 4.981 2.101 0.438 0 0.864-0.046 1.279-0.122 0.040 0.032 0.079 0.064 0.13 0.085l2.41 0.96 0.331 1.644-3.002-0.427zM20.020 18.573l-0.313-1.558 1.447-1.080 0.947 1.257-2.080 1.381zM23.774 15.742l-0.838 0.785-0.931-1.236 0.831-0.637c0.155-0.12 0.351-0.168 0.543-0.143 0.193 0.027 0.363 0.128 0.48 0.284 0.216 0.292 0.18 0.698-0.085 0.947z"></path>
<path fill="#2e2f42" style="fill: var(--color1, #2e2f42)" d="M13.602 18.544l-2.143-2.134c-0.207-0.207-0.544-0.207-0.752 0l-2.143 2.134c-0.101 0.101-0.157 0.236-0.157 0.378s0.056 0.278 0.157 0.378l2.143 2.134c0.104 0.104 0.241 0.155 0.377 0.155s0.273-0.052 0.376-0.155l2.143-2.134c0.101-0.1 0.158-0.236 0.158-0.378s-0.056-0.278-0.158-0.378zM11.083 20.303l-1.386-1.381 1.386-1.381 1.387 1.381-1.387 1.381z"></path>
<path fill="#2e2f42" style="fill: var(--color1, #2e2f42)" d="M17.164 5.071l-0.258 1.036c0.071 0.018 1.738 0.452 1.738 2.149h1.067c0-2.017-1.666-2.966-2.547-3.184z"></path>
<path fill="#2e2f42" style="fill: var(--color1, #2e2f42)" d="M19.711 9.322h-1.067v1.067h1.067v-1.067z"></path>
</symbol>
<symbol id="icon-clock" viewBox="0 0 32 32">
<path fill="#2e2f42" style="fill: var(--color1, #2e2f42)" d="M31.297 15.301c-0.002-8.453-6.855-15.303-15.308-15.301s-15.303 6.856-15.301 15.308c0.001 6.658 4.307 12.551 10.649 14.576 0.060 0.019 0.123 0.029 0.187 0.029 0.12 0 0.239-0.032 0.342-0.094 0.135-0.080 0.236-0.207 0.283-0.357l3.865-12.25c1.056-0.006 1.909-0.866 1.903-1.923s-0.866-1.909-1.923-1.903c-0.284 0.001-0.565 0.066-0.82 0.191l-5.106-5.106c-0.254-0.245-0.657-0.238-0.902 0.015-0.239 0.248-0.239 0.639 0 0.886l5.103 5.109c-0.392 0.8-0.168 1.764 0.537 2.309l-3.683 11.673c-7.278-2.681-11.005-10.754-8.323-18.032s10.754-11.005 18.032-8.323c7.278 2.681 11.005 10.754 8.323 18.032-1.31 3.555-4.001 6.431-7.462 7.973l-0.398-1.874c-0.073-0.345-0.412-0.564-0.756-0.491-0.108 0.023-0.209 0.074-0.293 0.148l-3.837 3.425c-0.263 0.234-0.287 0.637-0.052 0.901 0.076 0.085 0.174 0.149 0.283 0.184l4.899 1.564c0.335 0.107 0.695-0.076 0.802-0.412 0.034-0.106 0.040-0.219 0.017-0.328l-0.391-1.839c5.665-2.388 9.342-7.942 9.329-14.089zM15.992 14.664c0.352 0 0.637 0.286 0.637 0.637s-0.285 0.637-0.637 0.637c-0.352 0-0.637-0.286-0.637-0.637s0.286-0.637 0.637-0.637zM18.093 29.527l2.184-1.948 0.603 2.84-2.787-0.892z"></path>
<path fill="#4d5ae5" style="fill: var(--color2, #4d5ae5)" d="M15.354 3.185v1.275c0 0.353 0.286 0.638 0.637 0.638s0.638-0.285 0.638-0.638v-1.276c0-0.352-0.285-0.638-0.637-0.638s-0.637 0.285-0.637 0.638z"></path>
<path fill="#4d5ae5" style="fill: var(--color2, #4d5ae5)" d="M3.876 14.664c-0.353 0-0.637 0.286-0.637 0.637s0.285 0.637 0.638 0.637h1.276c0.353 0 0.638-0.286 0.638-0.637s-0.285-0.637-0.638-0.637h-1.276z"></path>
<path fill="#4d5ae5" style="fill: var(--color2, #4d5ae5)" d="M28.108 15.939c0.352 0 0.637-0.286 0.637-0.637s-0.285-0.637-0.637-0.637h-1.276c-0.352 0-0.637 0.286-0.637 0.637s0.285 0.637 0.637 0.637h1.276z"></path>
</symbol>
<symbol id="icon-close-button" viewBox="0 0 32 32">
<path d="M32 3.223l-3.223-3.223-12.777 12.777-12.777-12.777-3.223 3.223 12.777 12.777-12.777 12.777 3.223 3.223 12.777-12.777 12.777 12.777 3.223-3.223-12.777-12.777 12.777-12.777z"></path>
</symbol>
<symbol id="icon-diagram" viewBox="0 0 32 32">
<path fill="#4d5ae5" style="fill: var(--color2, #4d5ae5)" d="M14.925 14.964h1.066v4.798h-1.066v-4.797z"></path>
<path fill="#4d5ae5" style="fill: var(--color2, #4d5ae5)" d="M19.19 17.097h1.066v2.666h-1.066v-2.666z"></path>
<path fill="#4d5ae5" style="fill: var(--color2, #4d5ae5)" d="M10.661 18.696h1.066v1.066h-1.066v-1.066z"></path>
<path fill="#4d5ae5" style="fill: var(--color2, #4d5ae5)" d="M7.463 18.163h1.066v1.599h-1.066v-1.599z"></path>
<path fill="#2e2f42" style="fill: var(--color1, #2e2f42)" d="M1.599 28.291h25.587c0.883 0 1.599-0.716 1.599-1.599v-2.132c0-0.883-0.716-1.599-1.599-1.599h-0.533v-13.293l3.028-2.869c0.703 0.346 1.553 0.136 2.013-0.498s0.395-1.508-0.152-2.068-1.42-0.643-2.065-0.198c-0.645 0.446-0.873 1.292-0.543 2.002l-2.282 2.163v-1.23c0-0.883-0.716-1.599-1.599-1.599h-21.322c-0.883 0-1.599 0.716-1.599 1.599v15.992h-0.533c-0.883 0-1.599 0.716-1.599 1.599v2.132c0 0.883 0.716 1.599 1.599 1.599zM30.384 4.837c0.294 0 0.533 0.239 0.533 0.533s-0.238 0.533-0.533 0.533c-0.294 0-0.533-0.239-0.533-0.533s0.238-0.533 0.533-0.533zM3.199 6.969c0-0.295 0.239-0.533 0.533-0.533h21.322c0.294 0 0.533 0.239 0.533 0.533v2.238l-1.066 1.013v-2.185c0-0.295-0.238-0.533-0.533-0.533h-19.19c-0.295 0-0.533 0.239-0.533 0.533v13.326c0 0.294 0.239 0.533 0.533 0.533h19.19c0.294 0 0.533-0.238 0.533-0.533v-9.675l1.066-1.010v12.284h-22.389v-15.992zM7.996 13.899c-0.721-0.002-1.354 0.479-1.546 1.174s0.105 1.432 0.726 1.801c0.62 0.368 1.41 0.276 1.928-0.226l1.853 0.93c0.215 0.108 0.476 0.057 0.636-0.122l3.939-4.431 3.872 2.902c0.207 0.156 0.497 0.139 0.686-0.040l3.365-3.188v8.131h-18.124v-12.26h18.124v2.661l-3.771 3.572-3.905-2.927c-0.222-0.166-0.534-0.135-0.718 0.072l-3.993 4.492-1.492-0.746c0.011-0.064 0.018-0.129 0.021-0.194 0-0.883-0.716-1.599-1.599-1.599zM8.529 15.498c0 0.294-0.239 0.533-0.533 0.533s-0.533-0.239-0.533-0.533c0-0.294 0.239-0.533 0.533-0.533s0.533 0.239 0.533 0.533zM11.727 24.026h5.331v0.533c0 0.294-0.238 0.533-0.533 0.533h-4.264c-0.294 0-0.533-0.238-0.533-0.533v-0.533zM1.066 24.559c0-0.294 0.238-0.533 0.533-0.533h9.062v0.533c0 0.883 0.716 1.599 1.599 1.599h4.264c0.883 0 1.599-0.716 1.599-1.599v-0.533h9.062c0.294 0 0.533 0.238 0.533 0.533v2.132c0 0.294-0.238 0.533-0.533 0.533h-25.587c-0.294 0-0.533-0.238-0.533-0.533v-2.132z"></path>
</symbol>
<symbol id="icon-email" viewBox="0 0 24 32">
<path d="M20 8h-16c-1.1 0-1.99 0.9-1.99 2l-0.010 12c0 1.1 0.9 2 2 2h16c1.1 0 2-0.9 2-2v-12c0-1.1-0.9-2-2-2zM19.6 12.25l-7.070 4.42c-0.32 0.2-0.74 0.2-1.060 0l-7.070-4.42c-0.25-0.16-0.4-0.43-0.4-0.72 0-0.67 0.73-1.070 1.3-0.72l6.7 4.19 6.7-4.19c0.57-0.35 1.3 0.050 1.3 0.72 0 0.29-0.15 0.56-0.4 0.72z"></path>
</symbol>
<symbol id="icon-facebook" viewBox="0 0 32 32">
<path d="M21.329 5.313h2.921v-5.088c-0.504-0.070-2.238-0.226-4.256-0.226-4.212 0-7.098 2.65-7.098 7.519v4.481h-4.648v5.688h4.648v14.312h5.698v-14.31h4.46l0.708-5.688h-5.169v-3.918c0.002-1.644 0.444-2.769 2.735-2.769z"></path>
</symbol>
<symbol id="icon-instagram" viewBox="0 0 32 32">
<path d="M31.968 9.408c-0.075-1.7-0.35-2.869-0.744-3.882-0.407-1.075-1.032-2.038-1.851-2.838-0.8-0.813-1.769-1.444-2.832-1.844-1.019-0.394-2.181-0.669-3.882-0.744-1.713-0.082-2.257-0.1-6.602-0.1s-4.889 0.019-6.595 0.094c-1.7 0.075-2.869 0.35-3.882 0.744-1.075 0.406-2.038 1.032-2.838 1.85-0.813 0.8-1.444 1.769-1.844 2.832-0.394 1.019-0.669 2.182-0.744 3.882-0.082 1.713-0.1 2.257-0.1 6.601s0.019 4.889 0.094 6.595c0.075 1.7 0.35 2.869 0.744 3.882 0.406 1.075 1.038 2.038 1.85 2.838 0.8 0.813 1.769 1.444 2.832 1.844 1.019 0.394 2.181 0.669 3.882 0.744 1.707 0.075 2.251 0.094 6.595 0.094s4.889-0.018 6.595-0.094c1.7-0.075 2.869-0.35 3.882-0.744 2.151-0.831 3.851-2.532 4.683-4.682 0.393-1.019 0.669-2.182 0.744-3.882 0.075-1.706 0.094-2.25 0.094-6.595s-0.007-4.889-0.081-6.595zM29.087 22.473c-0.069 1.563-0.331 2.407-0.55 2.97-0.538 1.394-1.644 2.5-3.038 3.038-0.563 0.219-1.413 0.481-2.97 0.55-1.688 0.075-2.194 0.094-6.463 0.094s-4.782-0.018-6.464-0.094c-1.563-0.069-2.406-0.331-2.97-0.55-0.694-0.256-1.325-0.663-1.838-1.194-0.532-0.519-0.938-1.144-1.194-1.838-0.219-0.563-0.482-1.413-0.55-2.969-0.075-1.688-0.094-2.195-0.094-6.464s0.018-4.782 0.094-6.463c0.069-1.563 0.331-2.406 0.55-2.97 0.256-0.694 0.662-1.325 1.2-1.838 0.519-0.532 1.144-0.938 1.837-1.194 0.563-0.219 1.413-0.482 2.97-0.55 1.688-0.075 2.194-0.094 6.463-0.094 4.276 0 4.782 0.019 6.464 0.094 1.563 0.069 2.407 0.332 2.97 0.55 0.694 0.256 1.325 0.662 1.838 1.194 0.531 0.519 0.938 1.144 1.194 1.838 0.219 0.563 0.481 1.412 0.55 2.97 0.075 1.688 0.094 2.194 0.094 6.463s-0.019 4.77-0.094 6.457z"></path>
<path d="M16.059 7.782c-4.538 0-8.22 3.682-8.22 8.221s3.682 8.221 8.22 8.221c4.538 0 8.221-3.682 8.221-8.221s-3.682-8.22-8.221-8.22zM16.059 21.335c-2.944 0-5.332-2.388-5.332-5.332s2.388-5.332 5.332-5.332c2.945 0 5.332 2.388 5.332 5.332s-2.388 5.332-5.332 5.332z"></path>
<path d="M26.524 7.457c0 1.060-0.859 1.919-1.919 1.919s-1.919-0.86-1.919-1.919c0-1.060 0.86-1.919 1.919-1.919s1.919 0.859 1.919 1.919z"></path>
</symbol>
<symbol id="icon-linkedin" viewBox="0 0 32 32">
<path d="M31.992 32v-0.002h0.008v-11.736c0-5.742-1.236-10.164-7.948-10.164-3.227 0-5.392 1.771-6.276 3.45h-0.093v-2.914h-6.364v21.364h6.627v-10.578c0-2.785 0.528-5.479 3.977-5.479 3.399 0 3.45 3.178 3.45 5.657v10.402h6.62z"></path>
<path d="M0.528 10.636h6.634v21.364h-6.635v-21.364z"></path>
<path d="M3.843 0c-2.122 0-3.842 1.722-3.842 3.842s1.722 3.879 3.842 3.879c2.122 0 3.842-1.758 3.842-3.878-0.002-2.122-1.723-3.842-3.842-3.842v0z"></path>
</symbol>
<symbol id="icon-person" viewBox="0 0 32 32">
<path d="M16 16c2.947 0 5.334-2.386 5.334-5.334s-2.386-5.333-5.334-5.333c-2.947 0-5.334 2.386-5.334 5.333s2.386 5.334 5.334 5.334zM16 18.666c-3.56 0-10.666 1.787-10.666 5.334v1.334c0 0.733 0.6 1.334 1.333 1.334h18.666c0.733 0 1.334-0.6 1.334-1.334v-1.334c0-3.547-7.107-5.334-10.666-5.334z"></path>
</symbol>
<symbol id="icon-phone" viewBox="0 0 24 32">
<path d="M19.635 18.487l-2.451-0.28c-0.588-0.067-1.168 0.135-1.582 0.55l-1.776 1.776c-2.73-1.389-4.969-3.619-6.359-6.358l1.785-1.785c0.415-0.415 0.617-0.994 0.55-1.582l-0.28-2.431c-0.116-0.974-0.936-1.708-1.92-1.708h-1.67c-1.090 0-1.998 0.907-1.93 1.998 0.511 8.241 7.102 14.821 15.332 15.332 1.090 0.067 1.997-0.84 1.997-1.93v-1.669c0.009-0.974-0.724-1.794-1.698-1.91z"></path>
</symbol>
<symbol id="icon-telegram" viewBox="0 0 32 32">
<path d="M32 2.667l-32 15 10.226 3.157 15.774-12.323-11.998 13.489 0.009 0.003-0.012-0.003v7.345l5.735-5.575 7.265 2.242 5-23.334z"></path>
</symbol>
<symbol id="icon-twitter" viewBox="0 0 32 32">
<path d="M32 6.078c-1.19 0.522-2.458 0.868-3.78 1.036 1.36-0.812 2.398-2.088 2.886-3.626-1.268 0.756-2.668 1.29-4.16 1.588-1.204-1.282-2.92-2.076-4.792-2.076-3.632 0-6.556 2.948-6.556 6.562 0 0.52 0.044 1.020 0.152 1.496-5.454-0.266-10.28-2.88-13.522-6.862-0.566 0.982-0.898 2.106-0.898 3.316 0 2.272 1.17 4.286 2.914 5.452-1.054-0.020-2.088-0.326-2.964-0.808 0 0.020 0 0.046 0 0.072 0 3.188 2.274 5.836 5.256 6.446-0.534 0.146-1.116 0.216-1.72 0.216-0.42 0-0.844-0.024-1.242-0.112 0.85 2.598 3.262 4.508 6.13 4.57-2.232 1.746-5.066 2.798-8.134 2.798-0.538 0-1.054-0.024-1.57-0.090 2.906 1.874 6.35 2.944 10.064 2.944 12.072 0 18.672-10 18.672-18.668 0-0.29-0.010-0.57-0.024-0.848 1.302-0.924 2.396-2.078 3.288-3.406z"></path>
</symbol>
</defs>
</svg>
